<svg width="179" height="151" viewBox="0 0 179 151" fill="none" xmlns="http://www.w3.org/2000/svg">
<g filter="url(#filter0_b)">
<path d="M-0.500013 151C23.0723 151 46.4137 147.094 68.1917 139.506C89.9696 131.917 109.758 120.795 126.426 106.773C143.094 92.7515 156.316 76.1054 165.336 57.7852C174.357 39.465 179 19.8296 179 -1.52588e-05L-0.500007 7.41259e-06L-0.500013 151Z" fill="url(#paint0_linear)" fill-opacity="0.03"/>
</g>
<path d="M70.1266 77.63C69.19 75.0264 67.2626 73.7244 64.3443 73.7238H63.4236V89.7834H64.3443C66.5999 89.7834 68.2647 88.8943 69.3388 87.1162C70.2437 85.5985 70.6961 83.6673 70.6961 81.3226C70.694 79.9279 70.5041 78.697 70.1266 77.63Z" fill="white"/>
<path d="M54.3241 77.8225C55.2617 80.426 57.1889 81.7278 60.1055 81.7278H61.0263V65.6683H60.1055C57.85 65.6683 56.1852 66.5573 55.1111 68.3355C54.2089 69.8526 53.7575 71.7838 53.757 74.129C53.757 75.5221 53.946 76.7533 54.3241 77.8225Z" fill="white"/>
<path d="M39 40.021H51.2525V44.2743H43.3983V46.401H49.9233V50.4368H43.3983V52.5876H51.2525V56.841H39V40.021Z" fill="white"/>
<path d="M57.4142 40H73.2675L65.3408 57.1825L57.4142 40ZM65.3408 55.0558L71.89 40.8942H58.8158L65.3408 55.0558Z" fill="white"/>
<path d="M79.5991 40.0201H91.8516V44.2735H83.9975V46.4001H90.5225V50.436H83.9975V52.5868H91.8516V56.8401H79.5991V40.0201Z" fill="white"/>
<path d="M99.3915 56.816V40H100.334L112.079 51.4308V40H112.973V56.82L99.3915 56.816Z" fill="white"/>
<path d="M125.806 56.8401V44.2735H119.45V40.0201H133.032V44.2735H126.676V56.8401H125.806Z" fill="white"/>
<path d="M46.225 69.0201C47.2883 69.0201 48.1342 69.1813 48.7625 69.5035C49.4844 69.8557 50.0908 70.4066 50.5103 71.0916C50.9299 71.7765 51.1451 72.567 51.1308 73.3701C51.1352 74.1443 50.9171 74.9034 50.5025 75.5572C50.0811 76.2278 49.4889 76.7741 48.7867 77.1401C49.6587 77.4477 50.4227 78.0018 50.9858 78.7351C51.5704 79.4604 51.8862 80.3654 51.88 81.2968C51.8862 82.1108 51.6643 82.9103 51.2396 83.6047C50.8241 84.2944 50.2372 84.8647 49.5358 85.2601C49.1635 85.4601 48.7649 85.6065 48.3517 85.6951C47.9167 85.7918 47.3367 85.8401 46.6117 85.8401H39.1683V69.0201H46.225Z" fill="white"/>
<path d="M74.5604 84.6197C73.2956 83.5161 72.6713 81.8607 72.6874 79.6535H76.6266C76.6105 80.5718 76.8844 81.2726 77.4483 81.756C78.0122 82.2393 78.8016 82.481 79.8166 82.481C80.6544 82.481 81.3149 82.344 81.7983 82.0701C82.2816 81.7962 82.5233 81.3773 82.5233 80.8135C82.5233 80.3462 82.2776 80.0079 81.7862 79.7985C81.3169 79.5957 80.8265 79.4458 80.3241 79.3514C79.8408 79.2628 79.5427 79.2091 79.4299 79.1903C78.3351 78.9878 77.2597 78.6913 76.2158 78.3042C75.3393 77.9783 74.5584 77.4383 73.9441 76.7333C73.3319 76.0244 73.0258 75.09 73.0258 73.93C73.0258 72.77 73.3319 71.7832 73.9441 70.9696C74.5563 70.156 75.374 69.5478 76.397 69.145C77.4646 68.7341 78.6003 68.5291 79.7441 68.5408C81.2102 68.5408 82.479 68.8147 83.5503 69.3625C84.6217 69.9103 85.4635 70.74 86.0758 71.8517C86.3599 72.3218 86.5487 72.8432 86.6316 73.3862C86.6951 73.8629 86.7274 74.3433 86.7283 74.8242H82.7891C82.7891 73.9542 82.5555 73.3137 82.0883 72.9029C81.621 72.4921 80.896 72.2867 79.9133 72.2867C79.1238 72.2867 78.5116 72.4236 78.0766 72.6975C77.6416 72.9714 77.4241 73.3419 77.4241 73.8092C77.4241 74.3247 77.7141 74.7033 78.2941 74.945C79.0066 75.2266 79.7425 75.4449 80.4933 75.5975C81.9433 75.8875 83.0751 76.1654 83.8887 76.4312C84.7089 76.7016 85.4399 77.1904 86.0033 77.845C86.5994 78.5217 86.8974 79.4722 86.8974 80.6966C86.8974 81.8566 86.5752 82.8555 85.9308 83.6933C85.2863 84.5311 84.4365 85.1715 83.3812 85.6146C82.2974 86.0632 81.1345 86.2892 79.9616 86.2792C77.6255 86.2765 75.8251 85.7233 74.5604 84.6197Z" fill="white"/>
<path d="M96.8058 85.8401V73.2735H90.45V69.0201H104.032V73.2735H97.6758V85.8401H96.8058Z" fill="white"/>
<path d="M108.599 69.0201H120.852V73.2735H112.997V75.4001H119.522V79.436H112.997V81.5868H120.852V85.8401H108.599V69.0201Z" fill="white"/>
<path d="M139 85.8401H126.071V69.0201H132.62C134.022 69.0201 135.166 69.2699 136.052 69.7693C136.898 70.2298 137.601 70.9157 138.082 71.751C138.567 72.5961 138.817 73.5557 138.807 74.5301C138.818 75.7537 138.409 76.9439 137.647 77.9014C136.916 78.8632 135.888 79.5558 134.722 79.871L139 85.8401ZM126.965 70.4943V79.1701H133.176L126.965 70.4943ZM126.965 84.946H137.308L133.78 80.0401L133.031 80.0643H126.965V84.946ZM127.593 69.9143L134.167 79.0976C135.222 78.8866 136.171 78.314 136.849 77.4785C137.547 76.6557 137.924 75.6089 137.912 74.5301C137.922 73.6798 137.696 72.8434 137.26 72.1135C136.825 71.3888 136.186 70.8087 135.423 70.446C134.714 70.0915 133.788 69.9143 132.644 69.9143H127.593Z" fill="white"/>
<defs>
<filter id="filter0_b" x="-30.5" y="-30" width="239.5" height="211" filterUnits="userSpaceOnUse" color-interpolation-filters="sRGB">
<feFlood flood-opacity="0" result="BackgroundImageFix"/>
<feGaussianBlur in="BackgroundImage" stdDeviation="15"/>
<feComposite in2="SourceAlpha" operator="in" result="effect1_backgroundBlur"/>
<feBlend mode="normal" in="SourceGraphic" in2="effect1_backgroundBlur" result="shape"/>
</filter>
<linearGradient id="paint0_linear" x1="211.078" y1="-56.8403" x2="-37.7072" y2="228.073" gradientUnits="userSpaceOnUse">
<stop stop-color="#C4C4C4"/>
<stop offset="1" stop-color="#C4C4C4" stop-opacity="0"/>
</linearGradient>
</defs>
</svg>
